<?xml version="1.0" encoding="utf-8"?>
<!-- Generator: Adobe Illustrator 23.1.0, SVG Export Plug-In . SVG Version: 6.00 Build 0)  -->
<svg version="1.1" id="Слой_1" xmlns="http://www.w3.org/2000/svg" xmlns:xlink="http://www.w3.org/1999/xlink" x="0px" y="0px"
	 viewBox="0 0 57.6 57.6" style="enable-background:new 0 0 57.6 57.6;" xml:space="preserve">
<style type="text/css">
	.st0{fill:url(#SVGID_1_);}
	.st1{fill:url(#SVGID_2_);}
</style>
<linearGradient id="SVGID_1_" gradientUnits="userSpaceOnUse" x1="28.8085" y1="40.0213" x2="28.8085" y2="68.8298" gradientTransform="matrix(1 0 0 -1 0 83.234)">
	<stop  offset="0" style="stop-color:#2C6509"/>
	<stop  offset="1" style="stop-color:#56E300"/>
</linearGradient>
<path class="st0" d="M28.8,14.4c-7.9,0-14.4,6.5-14.4,14.4s6.5,14.4,14.4,14.4s14.4-6.5,14.4-14.4S36.7,14.4,28.8,14.4z"/>
<linearGradient id="SVGID_2_" gradientUnits="userSpaceOnUse" x1="28.8085" y1="25.617" x2="28.8085" y2="83.234" gradientTransform="matrix(1 0 0 -1 0 83.234)">
	<stop  offset="0" style="stop-color:#2C6509"/>
	<stop  offset="1" style="stop-color:#56E300"/>
</linearGradient>
<path class="st1" d="M28.8,3.6c14,0,25.2,11.2,25.2,25.2S42.9,54,28.8,54S3.6,42.9,3.6,28.8S14.8,3.6,28.8,3.6z M28.8,0
	C13,0,0,13,0,28.8s13,28.8,28.8,28.8s28.8-13,28.8-28.8S44.7,0,28.8,0z"/>
</svg>
