<svg width="57" height="56" fill="none" xmlns="http://www.w3.org/2000/svg"><path d="M23.118 36.435a15.601 15.601 0 014.375-8.199l10.5-10.5a.875.875 0 011.234 0l10.5 10.5a15.681 15.681 0 013.316 4.883c-4.97-1.427-10.91-.744-14.918 2.038-4.008 2.783-10.29 3.212-15.007 1.278zm31.16 4.217a15.75 15.75 0 01-30.836 3.01c1.914.633 3.917.957 5.933.963a17.23 17.23 0 009.712-2.783c4.121-2.835 10.413-3.228 15.19-1.19zM34.212 47.25a.875.875 0 00-.875-.875h-2.625a.875.875 0 100 1.75h2.625a.875.875 0 00.875-.875zm4.375 2.625a.875.875 0 00-.875-.875h-2.625a.875.875 0 100 1.75h2.625a.875.875 0 00.875-.875zm0-3.5h2.625a.875.875 0 000-1.75h-2.625a.875.875 0 100 1.75zm7 2.625a.875.875 0 00-.875-.875h-2.625a.875.875 0 100 1.75h2.625a.875.875 0 00.875-.875zm2.625-6.125h-2.625a.875.875 0 100 1.75h2.625a.875.875 0 000-1.75zm-9.126-6.283c-4.375 3.028-10.99 3.57-16.187 1.628 0 .385-.062.77-.062 1.155.008.759.07 1.516.184 2.266 4.725 1.986 10.99 1.584 15.103-1.234 4.375-3.027 11.033-3.56 16.222-1.618a15.866 15.866 0 00-.542-3.597c-4.717-1.793-10.745-1.338-14.718 1.4z" fill="#62B82D"/><path d="M46.438 14a.875.875 0 01-.876.875c-2.86 0-3.062 4.2-7 4.2-3.937 0-4.13-4.2-7-4.2s-3.062 4.2-7 4.2c-3.937 0-4.12-4.2-7-4.2-2.878 0-3.062 4.2-7 4.2-3.937 0-4.12-4.2-7-4.2a.875.875 0 010-1.75c3.938 0 4.122 4.2 7 4.2 2.88 0 3.063-4.2 7-4.2 3.938 0 4.13 4.2 7 4.2s3.063-4.2 6.992-4.2 4.13 4.2 7 4.2 3.071-4.2 7.008-4.2a.875.875 0 01.876.875zM45.562.875c-3.937 0-4.12 4.2-7 4.2-2.878 0-3.062-4.2-7.008-4.2s-4.121 4.2-7 4.2c-2.879 0-3.054-4.2-7-4.2s-4.121 4.2-7 4.2c-2.879 0-3.054-4.2-6.992-4.2a.875.875 0 000 1.75c2.862 0 3.063 4.2 7 4.2 3.938 0 4.122-4.2 7-4.2 2.88 0 3.072 4.2 7 4.2 3.93 0 4.113-4.2 6.992-4.2 2.878 0 3.062 4.2 7 4.2 3.937 0 4.13-4.2 7.008-4.2a.875.875 0 100-1.75zm0 25.375c-3.937 0-4.12 4.2-7 4.2-2.878 0-3.062-4.2-7.008-4.2s-4.121 4.2-7 4.2c-2.879 0-3.054-4.2-7-4.2s-4.121 4.2-7 4.2c-2.879 0-3.054-4.2-6.992-4.2a.875.875 0 000 1.75c2.862 0 3.063 4.2 7 4.2 3.938 0 4.122-4.2 7-4.2 2.88 0 3.072 4.2 7 4.2 3.93 0 4.122-4.2 7-4.2 2.88 0 3.063 4.2 7 4.2 3.938 0 4.122-4.2 7-4.2a.875.875 0 100-1.75z" fill="#000" fill-opacity=".65"/></svg>