<svg width="57" height="56" fill="none" xmlns="http://www.w3.org/2000/svg"><path d="M22.962 32.874l12.372-15.479A2.065 2.065 0 0139 18.681v11.445L47.313 35a2.625 2.625 0 01.726 3.903L35.667 54.355A2.066 2.066 0 0132 53.069V41.624l-8.312-4.874a2.625 2.625 0 01-.726-3.876z" fill="#62B82D"/><path d="M28.5 39.375a16.625 16.625 0 100-33.25 16.625 16.625 0 000 33.25zm0-31.5a14.875 14.875 0 110 29.75 14.875 14.875 0 010-29.75zM27.625 3.5V1.75a.875.875 0 011.75 0V3.5a.875.875 0 01-1.75 0zm.875 37.625a.875.875 0 01.875.875v1.75a.875.875 0 11-1.75 0V42a.875.875 0 01.875-.875zM50.375 22.75a.875.875 0 01-.875.875h-1.75a.875.875 0 110-1.75h1.75a.875.875 0 01.875.875zm-43.75 0a.875.875 0 01.875-.875h1.75a.875.875 0 010 1.75H7.5a.875.875 0 01-.875-.875zM41.494 9.756a.875.875 0 010-1.233l1.233-1.243a.879.879 0 011.243 1.243l-1.242 1.233a.875.875 0 01-1.234 0zM15.506 35.744a.875.875 0 010 1.233l-1.233 1.243a.878.878 0 11-1.243-1.242l1.243-1.234a.875.875 0 011.233 0zm27.221 0l1.243 1.233a.878.878 0 11-1.242 1.243l-1.234-1.242a.875.875 0 011.233-1.234zM13.03 8.523a.878.878 0 111.243-1.243l1.233 1.243a.876.876 0 01-.603 1.538.874.874 0 01-.63-.305L13.03 8.523z" fill="#000" fill-opacity=".65"/></svg>