<svg width="57" height="56" fill="none" xmlns="http://www.w3.org/2000/svg"><path d="M34.626 16.625a19.25 19.25 0 00-14.202 32.209l-4.795 4.795a.878.878 0 101.243 1.242l4.795-4.795a19.25 19.25 0 1012.959-33.45zm8.75 14.875A18.375 18.375 0 0125 49.875h-3.142l5.25-5.25H32a.875.875 0 000-1.75h-3.142c.097-.087 6.502-6.501 6.125-6.125H39A.875.875 0 0039 35h-2.267l2.888-2.879a.88.88 0 10-1.243-1.242l-4.375 4.375-3.753 3.762v-3.14a.875.875 0 10-1.75 0v4.89l-2.372 2.363-5.503 5.512v-3.14A18.375 18.375 0 0139 27.124h3.5a.875.875 0 01.875.875v3.5z" fill="#62B82D"/><path d="M36.375 17.5A16.625 16.625 0 1011 31.614v8.636a4.375 4.375 0 004.375 4.375h8.75A4.375 4.375 0 0028.5 40.25v-8.636A16.686 16.686 0 0036.375 17.5zm-15.75 6.125A7.875 7.875 0 0128.5 15.75h.875v.875A7.875 7.875 0 0121.5 24.5h-.875v-.875zm-1.75.875H18a7.875 7.875 0 01-7.875-7.875v-.875H11a7.875 7.875 0 017.875 7.875v.875zM26.75 32v2.126h-14V32h14zm-14 3.876h14V38.5h-14v-2.625zm11.375 7h-8.75a2.625 2.625 0 01-2.625-2.625h14a2.625 2.625 0 01-2.625 2.625zm3.264-12.626h-6.764v-4h.875a9.625 9.625 0 009.625-9.625v-1.75A.875.875 0 0030.25 14H28.5a9.624 9.624 0 00-8.75 5.635A9.625 9.625 0 0011 14H9.25a.875.875 0 00-.875.875v1.75A9.625 9.625 0 0018 26.25h.875v3.999h-6.764a14.875 14.875 0 1115.278 0z" fill="#000" fill-opacity=".65"/></svg>