<svg width="56" height="56" fill="none" xmlns="http://www.w3.org/2000/svg"><path d="M27.195 53.664A19.25 19.25 0 1041.92 18.09a19.25 19.25 0 00-14.725 35.573zm-.674-8.505a.875.875 0 01-1.242 0 13.125 13.125 0 01-2.844-4.261.875.875 0 011.619-.648 11.218 11.218 0 002.467 3.693.875.875 0 010 1.216zm21.166-9.284a13.02 13.02 0 01-.997 5.023.876.876 0 11-1.619-.648c.582-1.385.88-2.873.875-4.375a.875.875 0 111.75 0h-.008zm-5.083-9.284a.875.875 0 011.242 0 13.126 13.126 0 012.844 4.261.877.877 0 01-1.619.674 11.218 11.218 0 00-2.467-3.692.874.874 0 010-1.243zm0 17.325a.879.879 0 011.242 1.243A13.124 13.124 0 0134.563 49a12.49 12.49 0 01-2.494-.245l-.438 1.059a.875.875 0 01-1.619 0l-.945-2.284a.874.874 0 01.473-1.155l2.284-.945a.875.875 0 011.146 1.138l-.21.516c.595.104 1.198.16 1.803.166a11.375 11.375 0 008.04-3.334zM25.279 26.591a13.127 13.127 0 019.284-3.841 12.5 12.5 0 012.493.245l.438-1.059a.875.875 0 011.618 0l.945 2.284a.875.875 0 01-.472 1.155l-2.284.945a.875.875 0 01-1.146-1.137l.21-.517a11.231 11.231 0 00-1.803-.166 11.375 11.375 0 00-8.04 3.334.878.878 0 11-1.243-1.243zm-2.844 4.261a.877.877 0 111.619.674 11.218 11.218 0 00-.875 4.375.875.875 0 11-1.75 0 13.02 13.02 0 011.006-5.049z" fill="#62B82D"/><path d="M11.979 24.325l7.595 4.191V42a2.625 2.625 0 004.725 1.601l12.897-16.94a3.701 3.701 0 00-1.163-5.486l-7.596-4.191V3.5a2.625 2.625 0 00-4.725-1.601l-12.888 16.94a3.692 3.692 0 001.155 5.486zm.271-4.428L25.104 2.975a.875.875 0 011.584.525v14a.875.875 0 00.454.77l8.05 4.48a1.95 1.95 0 01.604 2.896L22.907 42.525A.875.875 0 0121.325 42V28a.876.876 0 00-.455-.77l-8.05-4.436a1.952 1.952 0 01-.569-2.897zM2.187 22.75A21.875 21.875 0 0115.69 2.537a.876.876 0 11.674 1.62 20.125 20.125 0 000 37.187.876.876 0 11-.674 1.618A21.874 21.874 0 012.187 22.75zm43.75 0a21.875 21.875 0 01-13.5 20.212.876.876 0 11-.674-1.618 20.125 20.125 0 000-37.188.876.876 0 11.673-1.619A21.875 21.875 0 0145.938 22.75z" fill="#000" fill-opacity=".65"/></svg>