<svg width="56" height="56" fill="none" xmlns="http://www.w3.org/2000/svg"><path d="M55.125 24.063a8.75 8.75 0 01-5.512 8.12 7.428 7.428 0 01-5.863 12.005c-8.146.524-12.932-1.506-17.211 2.782a9.853 9.853 0 00-2.783 6.843.874.874 0 01-1.496.62C10.211 42.386 18.7 21.439 35.875 21.439a8.75 8.75 0 018.75 7.875h-3.5a19.144 19.144 0 00-13.615 5.634.88.88 0 101.243 1.243 17.378 17.378 0 0112.372-5.127h5.25a7 7 0 007-7 .875.875 0 111.75 0z" fill="#62B82D"/><path d="M20.912 38.439a4.374 4.374 0 003.79.813 19.25 19.25 0 10-11.945-.875.879.879 0 10.665-1.627 17.5 17.5 0 1110.868.875 2.624 2.624 0 01-2.293-.49A2.625 2.625 0 0121 35v-5.775a6.125 6.125 0 005.25-6.055v-4.375a1.75 1.75 0 00-1.75-1.75h-.875V12.67a.875.875 0 10-1.75 0v4.375h-3.5V12.67a.875.875 0 10-1.75 0v4.375h-.875a1.75 1.75 0 00-1.75 1.75v4.375a6.125 6.125 0 005.25 6.055V35a4.375 4.375 0 001.662 3.439zm-5.162-15.26v-4.375h8.75v4.375a4.375 4.375 0 01-4.226 4.375.464.464 0 00-.15 0 .507.507 0 00-.157 0 4.375 4.375 0 01-4.217-4.375z" fill="#000" fill-opacity=".65"/></svg>