<svg width="34" height="44" fill="none" xmlns="http://www.w3.org/2000/svg"><path d="M17 13.5c-4.675 0-8.5 3.825-8.5 8.5s3.825 8.5 8.5 8.5 8.5-3.825 8.5-8.5-3.825-8.5-8.5-8.5z" fill="url(#paint0_linear)"/><path d="M17 7.125c8.288 0 14.875 6.588 14.875 14.875 0 8.288-6.587 14.875-14.875 14.875-8.287 0-14.875-6.587-14.875-14.875C2.125 13.713 8.713 7.125 17 7.125zM17 5C7.65 5 0 12.65 0 22s7.65 17 17 17 17-7.65 17-17S26.35 5 17 5z" fill="url(#paint1_linear)"/><defs><linearGradient id="paint0_linear" x1="17" y1="30.5" x2="17" y2="13.5" gradientUnits="userSpaceOnUse"><stop stop-color="#2C6509"/><stop offset="1" stop-color="#56E300"/></linearGradient><linearGradient id="paint1_linear" x1="17" y1="39" x2="17" y2="5" gradientUnits="userSpaceOnUse"><stop stop-color="#2C6509"/><stop offset="1" stop-color="#56E300"/></linearGradient></defs></svg>